{"title":"Ong.Bak.3.R1.RIP.[ENGLISH DUB]T.C.M.Crazy-Torrent","uid":6168393,"size":1364400128,"categoryP":"video","categoryS":"movies","magnet":"?xt=urn:btih:982b28fd54d030f20cc239b943c605d9d139a65f&amp;dn=Ong.Bak.3.R1.RIP.%5BENGLISH+DUB%5DT.C.M.Crazy-Torrent&amp;tr=udp%3A%2F%2Ftracker.openbittorrent.com%3A80&amp;tr=udp%3A%2F%2Fopen.demonii.com%3A1337&amp;tr=udp%3A%2F%2Ftracker.coppersurfer.tk%3A6969&amp;tr=udp%3A%2F%2Fexodus.desync.com%3A6969","seeders":1,"leechers":0,"uploader":"crazy-torrent","files":3,"time":1297471306,"description":"WWW..CRAZY-TORRENT..COM\n\n\nFormat                         : AVI\nFormat/Info                      : Audio Video Interleave\nFile size                        : 1.27 GiDuration                       \nOverall bit rate               : 1 841 Kbps\nWriting application              : VirtualDubMod 1.5.4.1 (build 2178/release)\nWriting library                  : VirtualDubMod build 2178/release\n\n\n\nVideo\nID                             : 0\nFormat                         : MPEG-4 Visua\nFormat profile                 : Advanced Simple@L5\nFormat settings, BVOP            : 1\nFormat settings, QPel            : No\nFormat settings, GMC           : No warppoints\nFormat settings, Matrix          : Custom\nCodec ID                       : XVID\nCodec ID/Hint                    : XviD\nDuration                       : 1h 38mn\nBit rate                       : 1 387 Kbps\nWidth                            : 704 pixels\nHeight                         : 304 pixels\nDisplay aspect ratio           : 2.35:1\nFrame rate                     : 23.976 fps\nColor space                      : YU\nChroma subsampling             : 4:2:0\nBit depth                        : 8 bits\nScan type                        : Progressive\nCompression mode               : Lossy\nBits/(Pixel*Frame)             : 0.270\nStream size                      : 979 MiB (75%)\nWriting library                  : XviD 58\n\n\n\n\nAudio\nID                             : 1\nFormat                         : AC-3\normat/Info                      : Audio Coding 3\nMode extension                 : CM (complete main)\nCodec ID                       : 2000\nDuration                       : 1h 38mn\nBit rate mode                    : Constant\nBit rate                       : 448 Kbps\nChannel(s)                     : 6 channels\nChannel positions                : Front: L C R, Side: L R, LFE\nSampling rate                    : 48.0 KHz\nBit depth                        : 16 bits\nCompression mode               : Lossy\nDelay relative to video          : 15ms\nStream size                      : 316 MiB (24%)\nAlignment                        : Split accross interleaves\nInterleave, duration           : 96 ms (2.30 video frames)\nInterleave, preload duration   : 96 ms\nLanguage                       : English[dubed]\nsubs                           : no\n\n\n\nnfo\n\nsfv\n\nthumbs and snaps from the movie\n\nenjoy! \n &lt;a href=&quot;\nhttp://img64.imageshack.us/img64/315/thumbs20110211235222.jpg&quot; rel=&quot;nofollow&quot; target=&quot;_NEW&quot;&gt;\nhttp://img64.imageshack.us/img64/315/thumbs20110211235222.jpg&lt;/a&gt;\n\nWWW..CRAZY-TORRENT..COM","torrent":{"xt":"urn:btih:982b28fd54d030f20cc239b943c605d9d139a65f","amp;dn":"Ong.Bak.3.R1.RIP.%5BENGLISH+DUB%5DT.C.M.Crazy-Torrent","amp;tr":["udp%3A%2F%2Ftracker.openbittorrent.com%3A80","udp%3A%2F%2Fopen.demonii.com%3A1337","udp%3A%2F%2Ftracker.coppersurfer.tk%3A6969","udp%3A%2F%2Fexodus.desync.com%3A6969"],"infoHash":"982b28fd54d030f20cc239b943c605d9d139a65f","infoHashBuffer":{"type":"Buffer","data":[152,43,40,253,84,208,48,242,12,194,57,185,67,198,5,217,209,57,166,95]},"announce":[],"urlList":[]}}